<svg width="18" height="24" viewBox="0 0 18 24" fill="none" xmlns="http://www.w3.org/2000/svg">
<path d="M14.7441 0.75H3.25977C1.87476 0.75 0.751953 1.87276 0.751953 3.25781V23.25L3.86983 20.2992L6.52696 23.25L9.00195 20.2992L11.4769 23.25L14.1341 20.2992L17.252 23.25V3.25781C17.252 1.87276 16.1292 0.75 14.7441 0.75ZM3.95117 5.2793H12.3271C12.7417 5.2793 13.0771 5.61511 13.0771 6.0293C13.0771 6.44348 12.7417 6.7793 12.3271 6.7793H3.95117C3.53662 6.7793 3.20117 6.44348 3.20117 6.0293C3.20117 5.61511 3.53662 5.2793 3.95117 5.2793ZM3.95117 7.91602H8.13916C8.55371 7.91602 8.88916 8.25183 8.88916 8.66602C8.88916 9.0802 8.55371 9.41602 8.13916 9.41602H3.95117C3.53662 9.41602 3.20117 9.0802 3.20117 8.66602C3.20117 8.25183 3.53662 7.91602 3.95117 7.91602ZM14.0527 17.8008H3.95117C3.53662 17.8008 3.20117 17.465 3.20117 17.0508C3.20117 16.6366 3.53662 16.3008 3.95117 16.3008H14.0527C14.4673 16.3008 14.8027 16.6366 14.8027 17.0508C14.8027 17.465 14.4673 17.8008 14.0527 17.8008ZM14.0527 15.4453H3.95117C3.53662 15.4453 3.20117 15.1095 3.20117 14.6953C3.20117 14.2811 3.53662 13.9453 3.95117 13.9453H14.0527C14.4673 13.9453 14.8027 14.2811 14.8027 14.6953C14.8027 15.1095 14.4673 15.4453 14.0527 15.4453ZM14.0527 12.75H3.95117C3.53662 12.75 3.20117 12.4142 3.20117 12C3.20117 11.5858 3.53662 11.25 3.95117 11.25H14.0527C14.4673 11.25 14.8027 11.5858 14.8027 12C14.8027 12.4142 14.4673 12.75 14.0527 12.75Z" fill="#BDBDBD"/>
</svg>
